<mxfile host="app.diagrams.net" agent="Mozilla/5.0 (Windows NT 10.0; Win64; x64) AppleWebKit/537.36 (KHTML, like Gecko) Chrome/129.0.0.0 Safari/537.36" version="24.8.0">
  <diagram id="prtHgNgQTEPvFCAcTncT" name="Page-1">
    <mxGraphModel dx="2547" dy="871" grid="1" gridSize="10" guides="1" tooltips="1" connect="1" arrows="1" fold="1" page="1" pageScale="1" pageWidth="827" pageHeight="1169" background="#FFFFFF" math="0" shadow="0">
      <root>
        <mxCell id="0" />
        <mxCell id="1" parent="0" />
        <mxCell id="dNxyNK7c78bLwvsdeMH5-11" value="Sorting Algorithm" style="swimlane;html=1;startSize=20;horizontal=1;containerType=tree;glass=0;labelBorderColor=none;textShadow=0;labelBackgroundColor=none;fillColor=#fad7ac;strokeColor=#b46504;" parent="1" vertex="1">
          <mxGeometry x="-140" y="440" width="330" height="240" as="geometry" />
        </mxCell>
        <mxCell id="OtilI0UbC40MiFN2WFo_-13" value="Find all possible routes" style="whiteSpace=wrap;html=1;aspect=fixed;fontSize=18;fillColor=#fad7ac;strokeColor=#b46504;" parent="dNxyNK7c78bLwvsdeMH5-11" vertex="1">
          <mxGeometry x="30" y="95" width="105" height="105" as="geometry" />
        </mxCell>
        <mxCell id="OtilI0UbC40MiFN2WFo_-15" value="Select Route with least amount of delta-v" style="whiteSpace=wrap;html=1;aspect=fixed;fontSize=18;labelBorderColor=none;fillColor=#fad7ac;strokeColor=#b46504;" parent="dNxyNK7c78bLwvsdeMH5-11" vertex="1">
          <mxGeometry x="190" y="88.75" width="117.5" height="117.5" as="geometry" />
        </mxCell>
        <mxCell id="OtilI0UbC40MiFN2WFo_-14" value="" style="endArrow=classic;html=1;rounded=0;exitX=1;exitY=0.5;exitDx=0;exitDy=0;" parent="dNxyNK7c78bLwvsdeMH5-11" source="OtilI0UbC40MiFN2WFo_-13" target="OtilI0UbC40MiFN2WFo_-15" edge="1">
          <mxGeometry width="50" height="50" relative="1" as="geometry">
            <mxPoint x="50" y="-80" as="sourcePoint" />
            <mxPoint x="300" y="-132" as="targetPoint" />
          </mxGeometry>
        </mxCell>
        <mxCell id="OtilI0UbC40MiFN2WFo_-16" value="" style="endArrow=classic;html=1;rounded=0;" parent="dNxyNK7c78bLwvsdeMH5-11" edge="1">
          <mxGeometry width="50" height="50" relative="1" as="geometry">
            <mxPoint x="307.5" y="150" as="sourcePoint" />
            <mxPoint x="380" y="150" as="targetPoint" />
          </mxGeometry>
        </mxCell>
        <mxCell id="OtilI0UbC40MiFN2WFo_-4" value="Deduce Hubble Space Telescope TLE" style="rounded=0;whiteSpace=wrap;html=1;fontSize=18;fillColor=#B1DDF0;strokeColor=#10739e;" parent="1" vertex="1">
          <mxGeometry x="-390" y="245" width="140" height="90" as="geometry" />
        </mxCell>
        <mxCell id="OtilI0UbC40MiFN2WFo_-6" value="Select two unique orbits" style="rounded=0;whiteSpace=wrap;html=1;fontSize=18;fillColor=#d5e8d4;gradientColor=#97d077;strokeColor=#82b366;" parent="1" vertex="1">
          <mxGeometry y="225" width="120" height="120" as="geometry" />
        </mxCell>
        <mxCell id="OtilI0UbC40MiFN2WFo_-8" value="Find and calculate delta-v transfer values (raan, inc, hohmann and phase)" style="rounded=0;whiteSpace=wrap;html=1;fontSize=18;fillColor=#d5e8d4;gradientColor=#97d077;strokeColor=#82b366;" parent="1" vertex="1">
          <mxGeometry x="160" y="210" width="140" height="150" as="geometry" />
        </mxCell>
        <mxCell id="OtilI0UbC40MiFN2WFo_-9" value="" style="endArrow=classic;html=1;rounded=0;entryX=0;entryY=0.5;entryDx=0;entryDy=0;" parent="1" source="OtilI0UbC40MiFN2WFo_-6" target="OtilI0UbC40MiFN2WFo_-8" edge="1">
          <mxGeometry width="50" height="50" relative="1" as="geometry">
            <mxPoint x="230" y="320" as="sourcePoint" />
            <mxPoint x="280" y="270" as="targetPoint" />
          </mxGeometry>
        </mxCell>
        <mxCell id="OtilI0UbC40MiFN2WFo_-10" value="Store values then repeat" style="endArrow=classic;html=1;rounded=0;exitX=0.5;exitY=1;exitDx=0;exitDy=0;entryX=0.5;entryY=1;entryDx=0;entryDy=0;shadow=1;" parent="1" source="OtilI0UbC40MiFN2WFo_-8" target="OtilI0UbC40MiFN2WFo_-6" edge="1">
          <mxGeometry x="-0.0588" width="50" height="50" relative="1" as="geometry">
            <mxPoint x="230" y="320" as="sourcePoint" />
            <mxPoint x="280" y="270" as="targetPoint" />
            <Array as="points">
              <mxPoint x="230" y="400" />
              <mxPoint x="60" y="400" />
            </Array>
            <mxPoint as="offset" />
          </mxGeometry>
        </mxCell>
        <mxCell id="OtilI0UbC40MiFN2WFo_-11" value="Using the orbital-transfer database" style="endArrow=classic;html=1;rounded=0;exitX=1;exitY=0.5;exitDx=0;exitDy=0;entryX=0;entryY=0.5;entryDx=0;entryDy=0;shadow=1;fillColor=#FFFFFF;" parent="1" source="OtilI0UbC40MiFN2WFo_-8" edge="1">
          <mxGeometry width="50" height="50" relative="1" as="geometry">
            <mxPoint x="310" y="305" as="sourcePoint" />
            <mxPoint x="-110" y="585" as="targetPoint" />
            <Array as="points">
              <mxPoint x="390" y="285" />
              <mxPoint x="390" y="420" />
              <mxPoint x="90" y="420" />
              <mxPoint x="-200" y="420" />
              <mxPoint x="-200" y="585" />
            </Array>
          </mxGeometry>
        </mxCell>
        <mxCell id="OtilI0UbC40MiFN2WFo_-17" value="Select Route and use delta-v parameters to simulate on GMAT" style="whiteSpace=wrap;html=1;aspect=fixed;fontSize=18;fillColor=#e1d5e7;strokeColor=#9673a6;" parent="1" vertex="1">
          <mxGeometry x="240" y="510" width="150" height="150" as="geometry" />
        </mxCell>
        <mxCell id="jUz8yTnasmN24TdEwhrY-1" value="" style="endArrow=classic;html=1;rounded=0;exitX=1;exitY=0.5;exitDx=0;exitDy=0;entryX=0;entryY=0.5;entryDx=0;entryDy=0;" edge="1" parent="1" source="OtilI0UbC40MiFN2WFo_-4" target="jUz8yTnasmN24TdEwhrY-5">
          <mxGeometry width="50" height="50" relative="1" as="geometry">
            <mxPoint x="150" y="360" as="sourcePoint" />
            <mxPoint x="-160" y="120" as="targetPoint" />
          </mxGeometry>
        </mxCell>
        <mxCell id="jUz8yTnasmN24TdEwhrY-2" value="&lt;font style=&quot;font-size: 18px;&quot;&gt;Communication Module&amp;nbsp;&lt;/font&gt;" style="whiteSpace=wrap;html=1;aspect=fixed;fillColor=#FF99FF;" vertex="1" parent="1">
          <mxGeometry x="-610" y="220" width="140" height="140" as="geometry" />
        </mxCell>
        <mxCell id="jUz8yTnasmN24TdEwhrY-3" value="" style="endArrow=classic;html=1;rounded=0;exitX=1;exitY=0.5;exitDx=0;exitDy=0;" edge="1" parent="1" source="jUz8yTnasmN24TdEwhrY-2" target="OtilI0UbC40MiFN2WFo_-4">
          <mxGeometry width="50" height="50" relative="1" as="geometry">
            <mxPoint x="-190" y="310" as="sourcePoint" />
            <mxPoint x="-140" y="260" as="targetPoint" />
          </mxGeometry>
        </mxCell>
        <mxCell id="jUz8yTnasmN24TdEwhrY-4" value="Sends TLEs" style="edgeLabel;html=1;align=center;verticalAlign=middle;resizable=0;points=[];" vertex="1" connectable="0" parent="jUz8yTnasmN24TdEwhrY-3">
          <mxGeometry x="0.0078" y="-1" relative="1" as="geometry">
            <mxPoint as="offset" />
          </mxGeometry>
        </mxCell>
        <mxCell id="jUz8yTnasmN24TdEwhrY-5" value="&lt;font style=&quot;font-size: 18px;&quot;&gt;Deduce SORCE TLE&lt;/font&gt;" style="whiteSpace=wrap;html=1;aspect=fixed;fillColor=#B1DDf0;" vertex="1" parent="1">
          <mxGeometry x="-220" y="245" width="90" height="90" as="geometry" />
        </mxCell>
        <mxCell id="jUz8yTnasmN24TdEwhrY-6" value="" style="endArrow=classic;html=1;rounded=0;exitX=1;exitY=0.5;exitDx=0;exitDy=0;" edge="1" parent="1" source="jUz8yTnasmN24TdEwhrY-5" target="jUz8yTnasmN24TdEwhrY-7">
          <mxGeometry width="50" height="50" relative="1" as="geometry">
            <mxPoint x="-190" y="310" as="sourcePoint" />
            <mxPoint x="-100" y="290" as="targetPoint" />
          </mxGeometry>
        </mxCell>
        <mxCell id="jUz8yTnasmN24TdEwhrY-7" value="Deduce Terra TLE" style="whiteSpace=wrap;html=1;aspect=fixed;" vertex="1" parent="1">
          <mxGeometry x="-110" y="250" width="80" height="80" as="geometry" />
        </mxCell>
      </root>
    </mxGraphModel>
  </diagram>
</mxfile>
